<svg width="22" height="22" viewBox="0 0 22 22" fill="none" xmlns="http://www.w3.org/2000/svg">
<path fill-rule="evenodd" clip-rule="evenodd" d="M11.149 21.6385C17.0238 21.6385 21.7861 16.8761 21.7861 11.0012H19.4223C19.4223 15.5705 15.7182 19.2747 11.149 19.2747C6.57979 19.2747 2.8757 15.5705 2.8757 11.0012C2.8757 6.43185 6.57979 2.72768 11.149 2.72768C12.463 2.72768 13.7056 3.03405 14.809 3.57925L16.3855 1.73995C14.8396 0.863941 13.0527 0.363831 11.149 0.363831C5.2743 0.363831 0.511902 5.12633 0.511902 11.0012C0.511902 16.8761 5.2743 21.6385 11.149 21.6385ZM19.1189 7.06412C19.5556 6.57893 19.5163 5.83161 19.0311 5.39494C18.5459 4.95827 17.7986 4.99761 17.3619 5.4828L10.7521 12.8272L8.44174 10.5019C7.98168 10.0388 7.23335 10.0364 6.77029 10.4965C6.30723 10.9565 6.30481 11.7049 6.76486 12.1679L9.95605 15.38C10.185 15.6104 10.4988 15.7366 10.8236 15.7285C11.1484 15.7205 11.4556 15.5791 11.673 15.3377L19.1189 7.06412Z" fill="#0045FF"/>
</svg>
