<svg width="32" height="32" viewBox="0 0 32 32" fill="none" xmlns="http://www.w3.org/2000/svg">
<path fill-rule="evenodd" clip-rule="evenodd" d="M16 0C7.16344 0 0 7.16344 0 16C0 24.8366 7.16344 32 16 32C24.8366 32 32 24.8366 32 16C32 7.16344 24.8366 0 16 0ZM12.4822 7.51822C13.3924 7.4768 13.6833 7.46666 16.0008 7.46666H15.9982C18.3164 7.46666 18.6062 7.4768 19.5164 7.51822C20.4249 7.55982 21.0453 7.70364 21.5893 7.91467C22.1511 8.13245 22.6258 8.42401 23.1004 8.89868C23.5751 9.37299 23.8667 9.84909 24.0853 10.4103C24.2951 10.9529 24.4391 11.573 24.4818 12.4815C24.5227 13.3917 24.5334 13.6825 24.5334 16.0001C24.5334 18.3176 24.5227 18.6078 24.4818 19.518C24.4391 20.4261 24.2951 21.0464 24.0853 21.5891C23.8667 22.1502 23.5751 22.6263 23.1004 23.1006C22.6263 23.5753 22.1509 23.8675 21.5899 24.0855C21.0469 24.2965 20.4261 24.4403 19.5177 24.482C18.6074 24.5234 18.3175 24.5335 15.9998 24.5335C13.6824 24.5335 13.3917 24.5234 12.4815 24.482C11.5732 24.4403 10.9529 24.2965 10.41 24.0855C9.84911 23.8675 9.37301 23.5753 8.89888 23.1006C8.42438 22.6263 8.13282 22.1502 7.91469 21.5889C7.70384 21.0464 7.56002 20.4263 7.51824 19.5178C7.47699 18.6076 7.46668 18.3176 7.46668 16.0001C7.46668 13.6825 7.47735 13.3915 7.51806 12.4813C7.55895 11.5732 7.70295 10.9529 7.91451 10.4102C8.13318 9.84909 8.42474 9.37299 8.89941 8.89868C9.37372 8.42418 9.84982 8.13262 10.4111 7.91467C10.9537 7.70364 11.5737 7.55982 12.4822 7.51822Z" fill="#E31D1A"/>
<path fill-rule="evenodd" clip-rule="evenodd" d="M15.2353 9.00445C15.3839 9.00422 15.5438 9.00429 15.7164 9.00437L16.0008 9.00445C18.2792 9.00445 18.5493 9.01263 19.449 9.05352C20.281 9.09156 20.7326 9.23059 21.0334 9.34739C21.4316 9.50206 21.7155 9.68695 22.014 9.98562C22.3127 10.2843 22.4976 10.5687 22.6526 10.967C22.7694 11.2674 22.9086 11.719 22.9465 12.551C22.9873 13.4505 22.9962 13.7208 22.9962 15.9981C22.9962 18.2755 22.9873 18.5457 22.9465 19.4453C22.9084 20.2773 22.7694 20.7288 22.6526 21.0293C22.4979 21.4275 22.3127 21.7111 22.014 22.0096C21.7153 22.3082 21.4318 22.4931 21.0334 22.6478C20.7329 22.7651 20.281 22.9038 19.449 22.9418C18.5494 22.9827 18.2792 22.9916 16.0008 22.9916C13.7222 22.9916 13.4521 22.9827 12.5526 22.9418C11.7206 22.9034 11.269 22.7644 10.968 22.6476C10.5698 22.4929 10.2853 22.3081 9.98668 22.0094C9.68801 21.7107 9.50312 21.427 9.34809 21.0286C9.23129 20.7281 9.09209 20.2766 9.05422 19.4446C9.01334 18.545 9.00516 18.2748 9.00516 15.996C9.00516 13.7172 9.01334 13.4484 9.05422 12.5488C9.09227 11.7168 9.23129 11.2653 9.34809 10.9645C9.50276 10.5662 9.68801 10.2818 9.98668 9.98313C10.2853 9.68446 10.5698 9.49957 10.968 9.34455C11.2688 9.22721 11.7206 9.08854 12.5526 9.05032C13.3398 9.01476 13.6449 9.0041 15.2353 9.00232V9.00445ZM20.5559 10.4214C19.9905 10.4214 19.5318 10.8795 19.5318 11.445C19.5318 12.0104 19.9905 12.469 20.5559 12.469C21.1212 12.469 21.5799 12.0104 21.5799 11.445C21.5799 10.8797 21.1212 10.421 20.5559 10.421V10.4214ZM11.6185 16.0001C11.6185 13.58 13.5806 11.6179 16.0006 11.6178C18.4207 11.6178 20.3823 13.58 20.3823 16.0001C20.3823 18.4202 18.4209 20.3815 16.0008 20.3815C13.5807 20.3815 11.6185 18.4202 11.6185 16.0001Z" fill="#E31D1A"/>
<path d="M16.0008 13.1556C17.5716 13.1556 18.8453 14.4291 18.8453 16.0001C18.8453 17.571 17.5716 18.8446 16.0008 18.8446C14.4297 18.8446 13.1563 17.571 13.1563 16.0001C13.1563 14.4291 14.4297 13.1556 16.0008 13.1556Z" fill="#E31D1A"/>
</svg>
