<svg width="32" height="32" viewBox="0 0 32 32" fill="none" xmlns="http://www.w3.org/2000/svg">
<path d="M0 16C0 7.16344 7.16344 0 16 0C24.8366 0 32 7.16344 32 16C32 24.8366 24.8366 32 16 32C7.16344 32 0 24.8366 0 16Z" fill="#E31D1A"/>
<g clip-path="url(#clip0)">
<path d="M12.5 13.0002H9.5C9.35 13.0002 9.25 13.1002 9.25 13.2502V22.7502C9.25 22.9002 9.35 23.0002 9.5 23.0002H12.5C12.65 23.0002 12.75 22.9002 12.75 22.7502V13.2502C12.75 13.1002 12.65 13.0002 12.5 13.0002Z" fill="white"/>
<path d="M20.6999 12.4998C19.5999 12.4998 18.4499 12.9498 17.7499 13.4498V13.2498C17.7499 13.0998 17.6499 12.9998 17.4999 12.9998H14.4999C14.3499 12.9998 14.2499 13.0998 14.2499 13.2498V22.7498C14.2499 22.8998 14.3499 22.9998 14.4999 22.9998H17.4999C17.6499 22.9998 17.7499 22.8998 17.7499 22.7498V16.0998C18.4499 15.4498 19.3999 15.2998 19.8999 15.8498C20.1499 16.0998 20.2499 16.4998 20.2499 16.9998V22.7498C20.2499 22.8998 20.3499 22.9998 20.4999 22.9998H23.4999C23.6499 22.9998 23.7499 22.8998 23.7499 22.7498V16.2498C23.6999 12.9998 21.7999 12.4998 20.6999 12.4998Z" fill="white"/>
<path d="M11 8C10.05 8 9.25 8.8 9.25 9.75C9.25 10.7 10.05 11.5 11 11.5C11.95 11.5 12.75 10.7 12.75 9.75C12.75 8.8 11.95 8 11 8Z" fill="white"/>
</g>
<defs>
<clipPath id="clip0">
<rect width="15" height="15" fill="white" transform="translate(9 8)"/>
</clipPath>
</defs>
</svg>
