<svg width="32" height="32" viewBox="0 0 32 32" fill="none" xmlns="http://www.w3.org/2000/svg">
<path fill-rule="evenodd" clip-rule="evenodd" d="M16 0C7.16344 0 0 7.16344 0 16C0 24.8366 7.16344 32 16 32C24.8366 32 32 24.8366 32 16C32 7.16344 24.8366 0 16 0ZM15.8036 13.6892L15.7689 13.1173C15.6649 11.6351 16.5782 10.2812 18.0233 9.75596C18.5551 9.56921 19.4568 9.54587 20.0464 9.70927C20.2777 9.7793 20.717 10.0127 21.0291 10.2228L21.5956 10.608L22.2199 10.4096C22.5667 10.3045 23.0291 10.1294 23.2372 10.0127C23.4338 9.90769 23.6072 9.84933 23.6072 9.88434C23.6072 10.0828 23.1794 10.7597 22.8211 11.1332C22.3355 11.6584 22.4742 11.7051 23.4569 11.3549C24.0465 11.1565 24.0581 11.1565 23.9425 11.3783C23.8731 11.495 23.5147 11.9035 23.1332 12.277C22.4858 12.9189 22.4511 12.9889 22.4511 13.5258C22.4511 14.3545 22.058 16.0819 21.665 17.0273C20.9366 18.8013 19.3759 20.6337 17.8152 21.5558C15.6186 22.8513 12.6937 23.1781 10.2312 22.4195C9.41043 22.1627 8 21.5091 8 21.3924C8 21.3574 8.42775 21.3107 8.94799 21.299C10.0347 21.2757 11.1214 20.9722 12.0463 20.4353L12.6706 20.0618L11.9538 19.8167C10.9365 19.4666 10.0232 18.6613 9.79194 17.9026C9.72257 17.6575 9.74569 17.6459 10.3931 17.6459L11.0636 17.6342L10.4972 17.3657C9.82662 17.0273 9.21389 16.4554 8.91331 15.8718C8.69365 15.4516 8.41619 14.3895 8.49712 14.3078C8.52024 14.2728 8.76302 14.3428 9.04048 14.4362C9.83818 14.728 9.94223 14.658 9.47979 14.1678C8.61273 13.2807 8.34683 11.9619 8.76302 10.713L8.95955 10.1528L9.72257 10.9114C11.2833 12.4404 13.1215 13.3508 15.2256 13.6192L15.8036 13.6892Z" fill="#E31D1A"/>
</svg>
